<svg width="20" height="20" viewBox="0 0 20 20" fill="none" xmlns="http://www.w3.org/2000/svg">
<path d="M10 0C8.02219 0 6.08879 0.58649 4.4443 1.6853C2.79981 2.78412 1.51809 4.3459 0.761209 6.17316C0.00433284 8.00043 -0.193701 10.0111 0.192152 11.9509C0.578004 13.8907 1.53041 15.6725 2.92894 17.0711C4.32746 18.4696 6.10929 19.422 8.0491 19.8079C9.98891 20.1937 11.9996 19.9957 13.8268 19.2388C15.6541 18.4819 17.2159 17.2002 18.3147 15.5557C19.4135 13.9112 20 11.9778 20 10C20 7.34783 18.9464 4.8043 17.0711 2.92893C15.1957 1.05357 12.6522 0 10 0V0ZM11.94 6.36H15.26V7.36H11.94V6.36ZM10.25 11.56C10.2563 11.8924 10.1934 12.2226 10.0654 12.5294C9.93737 12.8363 9.74698 13.1132 9.50628 13.3427C9.26559 13.5721 8.97985 13.749 8.66719 13.8621C8.35453 13.9753 8.02177 14.0222 7.69 14H6.75V12.51H7.62C7.96 12.51 8.54 12.37 8.54 11.51C8.54 10.4 7.69 10.41 7.69 10.41H5.35V12.56H6.65V14H3.5V5.88H6.65V7.31H5.35V9.12H7.55C7.93 9.12 8.26 8.99 8.26 8.12C8.26 7.25 7.69 7.28 7.69 7.28H6.75V5.88H7.69C7.98556 5.84536 8.28511 5.87484 8.56823 5.96645C8.85136 6.05805 9.1114 6.20963 9.33064 6.41084C9.54988 6.61204 9.72317 6.85816 9.83868 7.1324C9.95419 7.40664 10.0092 7.70257 10 8C10.0222 8.18557 10.007 8.37371 9.95527 8.55331C9.90357 8.73291 9.81644 8.90034 9.69901 9.04573C9.58157 9.19112 9.43622 9.31153 9.27152 9.39985C9.10681 9.48818 8.92609 9.54263 8.74 9.56C10.37 9.56 10.25 11.56 10.25 11.56ZM16.48 11.43H12.3C12.2863 11.6191 12.3137 11.8089 12.3805 11.9864C12.4473 12.1638 12.5518 12.3247 12.6868 12.4578C12.8219 12.5909 12.9842 12.6931 13.1625 12.7574C13.3409 12.8216 13.5311 12.8464 13.72 12.83C15.06 12.83 15 12 15 12H16.42C16.42 14.3 13.66 14.14 13.66 14.14C13.2408 14.176 12.8188 14.1191 12.4242 13.9733C12.0295 13.8275 11.6718 13.5964 11.3767 13.2965C11.0816 12.9966 10.8563 12.6353 10.7169 12.2384C10.5774 11.8414 10.5273 11.4186 10.57 11C10.5576 10.5917 10.6287 10.1852 10.779 9.80533C10.9292 9.42548 11.1555 9.08033 11.4439 8.79102C11.7322 8.5017 12.0767 8.27433 12.456 8.12284C12.8354 7.97134 13.2417 7.89892 13.65 7.91V9.12C13.3131 9.1351 12.992 9.26718 12.7419 9.4935C12.4918 9.71983 12.3285 10.0262 12.28 10.36H14.93C14.934 10.2011 14.9066 10.0429 14.8495 9.89461C14.7923 9.74628 14.7065 9.61066 14.5969 9.49551C14.4873 9.38035 14.3561 9.28792 14.2108 9.22349C14.0655 9.15906 13.9089 9.12389 13.75 9.12V7.94C16.92 8 16.48 11.43 16.48 11.43Z" fill="#2F3640"/>
</svg>
