<svg xmlns="http://www.w3.org/2000/svg" viewBox="0 0 800 248.59"><g id="Layer_2" data-name="Layer 2"><g id="Layer_1-2" data-name="Layer 1"><path d="M521.42,248.59H800v-7h-8.9V173.14H771.56V166l-9.86-6.8V140.06h-5.81v15.12L734,140.06l-37.45,25.83.6-.41V91.84H682.19V88.22a34.82,34.82,0,0,0-.3-4.36h4.89V79.22H681c-.26-1-.56-2-.91-2.9h6.72V74h-7.65a34.8,34.8,0,0,0-31.76-20.61h-.78A34.8,34.8,0,0,0,614.83,74h-7.66v2.32h6.73c-.35,1-.65,1.91-.91,2.9h-5.82v4.64h4.9a34.82,34.82,0,0,0-.3,4.36h0v31.63h-4.6v4.64h4.6v4.21h-4.6V131h4.6v59.92h-9.29V160.61h4.79V156h-4.79V145.52h4.79V143.2h-4.79v-3.91h4.79v-4.65h-4.79V100.4h4.79V98.08h-4.79V94.16h4.79V89.52h-4.79v-35h4.79V52.23h-4.79V48.32h4.79V43.67h-4.79V41.4a13.93,13.93,0,0,0-13.92-13.93h1.16V6.75a3.49,3.49,0,1,0-2.33,0V27.47h-1.54A13.93,13.93,0,0,0,571.92,41.4v2.27h-4.79v4.65h4.79v3.91h-4.79v2.33h4.79V73.71h-20.7V190.94h-4.07l-15.47,20.31v30.37H521.42Zm250.14-70.81h14.9v63.84h-4v-55.9H771.56Zm6.29,12.58v51.26h-6.29V190.36ZM692.49,96.49v66.6l-10.3-7.1V131h4.59V128.7h-4.59v-4.21h4.59v-4.64h-4.59V96.49ZM555.86,78.35h16.06V89.52h-4.79v4.64h4.79v3.92h-4.79v2.32h4.79v34.24h-4.79v4.65h4.79v3.91h-4.79v2.32h4.79V156h-4.79v4.64h4.79v30.33H555.86Z" style="fill:#fff"/><path d="M0,248.41H278.57v-7H268V169l-30.76-30.47v76.32H233.5V138.53h-9.28V128.37H202.74v10.16H192.49V128.37h-8.42V103.13h27.09v25h4.64V98.49H112.16v1.82c0-2.94,0-5.68.07-8.2h0c.1-3.8.29-7.11.51-9.87H119V77.59h-5.8c.4-3.6.77-5.51.77-5.51H64.43s.36,1.91.76,5.51h-5.8v4.65h6.24c.22,2.76.41,6.07.52,9.87h0c.13,5,.12,10.79-.18,17.4h0c-.24,5.32-.68,11.14-1.37,17.41h0c0,.49-.09,1-.14,1.45-.18,1.5-.36,3-.55,4.4,0,.1,0,.21-.05.32q-.88,6.58-2,12.41h0c-1.09,5.95-2.28,11.29-3.47,15.95h0q-.69,2.7-1.36,5.1a.57.57,0,0,0,0,.14c-.14.49-.27.95-.41,1.42-.69-4.45-1.38-9.28-2.06-14.29h2.82v-4.65H53.93c-.48-3.66-.94-7.37-1.38-11.07H63.1c.46-3,.89-6.06,1.27-9.29H51.48c-.46-4.11-.88-8.1-1.25-11.9H53.3v-4.64H49.79c-.55-6.09-.95-11.45-1.14-15.52-.26-6-.36-12.93-.38-19.74h5V72.37h-5c0-6,.1-11.63.18-16.06H53.3V51.67H48.54c.07-2.84.11-4.55.11-4.55H35.21s0,1.71.11,4.55H30.56v4.64h4.85c.08,4.43.16,10.06.18,16.06h-5V77h5c0,6.81-.12,13.78-.38,19.74-.19,4.07-.59,9.43-1.14,15.52H30.56v4.64h3.07c-.2,2.09-.42,4.25-.65,6.45a13.09,13.09,0,0,0-9,5.45H9.77v70.37H7.45v42.27H0ZM147.7,103.13v25h4.65v-25h27.08v25.24H171v10.16H160.76V128.37H139.29v10.16h-12v45.56l0-.08,0,0a1.33,1.33,0,0,0-.1-.23.14.14,0,0,0,0-.06c-.05-.11-.11-.24-.17-.4l0,0c-.23-.55-.56-1.37-1-2.44a.17.17,0,0,0,0-.05c-.54-1.43-1.23-3.31-2-5.62,0-.07,0-.14-.07-.2-.17-.52-.35-1.06-.53-1.63l-.06-.19c-.4-1.23-.81-2.57-1.23-4l-.15-.48c-.15-.53-.31-1.07-.46-1.63-.08-.26-.15-.52-.22-.79-.13-.46-.27-.95-.4-1.43-.09-.32-.17-.64-.26-1s-.25-.94-.37-1.42c-1.26-4.88-2.54-10.53-3.71-16.88h0c-.69-3.8-1.34-7.84-1.92-12.11l-.12-.87c-.18-1.36-.35-2.74-.51-4.15-.06-.49-.1-1-.16-1.45h0c-.7-6.27-1.13-12.09-1.38-17.41h0c-.1-2.23-.16-4.33-.2-6.38Zm-128.64,35H24a12.41,12.41,0,0,0,6.77,4.9q-.39,3.1-.79,6.17H26.5v4.65h2.82C27.69,165.9,26,177,24.47,184.09h-.19v15.09H19.06Z" style="fill:#fff"/><rect x="515.26" y="55.16" width="6.01" height="193.43" style="fill:#fff"/><rect x="498.22" y="54.9" width="4.01" height="193.43" style="fill:#fff"/><rect x="474.16" y="54.9" width="47.1" height="3.01" style="fill:#fff"/><rect x="474.16" y="127.06" width="47.1" height="3.01" style="fill:#fff"/><rect x="276.73" y="55.16" width="6.01" height="193.43" transform="translate(559.47 303.75) rotate(-180)" style="fill:#fff"/><rect x="295.77" y="54.9" width="4.01" height="193.43" transform="translate(595.55 303.23) rotate(-180)" style="fill:#fff"/><rect x="276.73" y="54.9" width="47.1" height="3.01" transform="translate(600.56 112.8) rotate(-180)" style="fill:#fff"/><rect x="276.73" y="127.06" width="47.1" height="3.01" transform="translate(600.56 257.12) rotate(-180)" style="fill:#fff"/></g></g></svg>