<svg xmlns="http://www.w3.org/2000/svg" viewBox="0 0 268.36 40"><g id="Layer_2" data-name="Layer 2"><g id="Layer_1-2" data-name="Layer 1"><path d="M100.44,7.64v20.3q0,6.16-3.06,9.11t-9.14,3a21.74,21.74,0,0,1-6.34-.91A12.47,12.47,0,0,1,77,36.5l2-3.28a12.13,12.13,0,0,0,4.05,2.24,15.63,15.63,0,0,0,5,.82q4.13,0,6.1-2t2-5.95V26.52a9.54,9.54,0,0,1-3.7,2.73,12.32,12.32,0,0,1-4.77.91,12.79,12.79,0,0,1-6.09-1.44,10.68,10.68,0,0,1-4.28-4,11.25,11.25,0,0,1-1.55-5.92,11.21,11.21,0,0,1,1.55-5.91,10.57,10.57,0,0,1,4.28-4,13,13,0,0,1,6.09-1.42,12.45,12.45,0,0,1,4.94,1,9.1,9.1,0,0,1,3.75,2.88V7.64Zm-8.1,17.82a7.24,7.24,0,0,0,2.89-2.73,7.66,7.66,0,0,0,1-4A7.24,7.24,0,0,0,94,13.24a9.14,9.14,0,0,0-11.66,0,7.2,7.2,0,0,0-2.26,5.52,7.57,7.57,0,0,0,1,4A7.15,7.15,0,0,0,84,25.46a8.81,8.81,0,0,0,4.19,1A8.66,8.66,0,0,0,92.34,25.46Z" style="fill:#2f3640"/><path d="M124.24,7.64V31.13h-4V27.59a8.56,8.56,0,0,1-3.39,2.81,10.55,10.55,0,0,1-4.59,1,10.31,10.31,0,0,1-7.41-2.59q-2.7-2.6-2.7-7.65V7.64h4.26v13A7.28,7.28,0,0,0,108,25.84a6.14,6.14,0,0,0,4.69,1.75,7,7,0,0,0,5.33-2A8,8,0,0,0,120,19.78V7.64Z" style="fill:#2f3640"/><path d="M126.15,7.64h4.25V31.13h-4.25Z" style="fill:#2f3640"/><path d="M126.15.85h4.25V5.21h-4.25Z" style="fill:#2f3640"/><path d="M168.73,10q2.6,2.56,2.59,7.62V31.13h-4.25v-13A7.39,7.39,0,0,0,165.49,13a5.75,5.75,0,0,0-4.5-1.73,6.76,6.76,0,0,0-5.14,2A8.13,8.13,0,0,0,153.94,19v12.1h-4.25v-13A7.44,7.44,0,0,0,148.12,13a5.75,5.75,0,0,0-4.5-1.73,6.76,6.76,0,0,0-5.15,2,8.13,8.13,0,0,0-1.9,5.79v12.1h-4.26V7.64h4.08v3.5a8.23,8.23,0,0,1,3.37-2.77,11.21,11.21,0,0,1,4.74-1,10.42,10.42,0,0,1,4.88,1.11,7.71,7.71,0,0,1,3.28,3.24,9,9,0,0,1,3.7-3.19,12,12,0,0,1,5.34-1.16A9.53,9.53,0,0,1,168.73,10Z" style="fill:#2f3640"/><path d="M248.24,20.8H229.18a7.34,7.34,0,0,0,2.73,5,8.87,8.87,0,0,0,5.78,1.89,8.71,8.71,0,0,0,6.78-2.84l2.35,2.75a10.24,10.24,0,0,1-4,2.83A14.94,14.94,0,0,1,231,29.87a10.93,10.93,0,0,1-4.45-4.28,12.26,12.26,0,0,1-1.58-6.21,12.45,12.45,0,0,1,1.53-6.16,11,11,0,0,1,4.21-4.28,12,12,0,0,1,6.06-1.53,11.75,11.75,0,0,1,6,1.53,10.77,10.77,0,0,1,4.13,4.28,13,13,0,0,1,1.48,6.3A12,12,0,0,1,248.24,20.8Zm-16.65-7.93a7.47,7.47,0,0,0-2.41,4.87h15.07a7.54,7.54,0,0,0-2.41-4.85A7.31,7.31,0,0,0,236.72,11,7.39,7.39,0,0,0,231.59,12.87Z" style="fill:#2f3640"/><path d="M252.67,30.62a11.92,11.92,0,0,1-4.17-2l1.77-3.37A12.67,12.67,0,0,0,254,27.05a15.3,15.3,0,0,0,4.48.67q5.58,0,5.58-3.19a2.09,2.09,0,0,0-.75-1.69,4.93,4.93,0,0,0-1.88-.91c-.76-.19-1.83-.4-3.22-.64a30.17,30.17,0,0,1-4.63-1,7.06,7.06,0,0,1-3.08-1.95,5.42,5.42,0,0,1-1.29-3.86,6,6,0,0,1,2.66-5.12,12,12,0,0,1,7.14-1.93,19.89,19.89,0,0,1,4.7.58,12.83,12.83,0,0,1,3.86,1.55l-1.82,3.37A12.22,12.22,0,0,0,259,11.05a7.87,7.87,0,0,0-4.13.89,2.68,2.68,0,0,0-1.42,2.35,2.24,2.24,0,0,0,.8,1.81,5,5,0,0,0,2,1c.78.21,1.88.44,3.3.71a35.13,35.13,0,0,1,4.59,1,7,7,0,0,1,3,1.88,5.25,5.25,0,0,1,1.24,3.73,5.85,5.85,0,0,1-2.73,5.07,12.82,12.82,0,0,1-7.42,1.89A19.57,19.57,0,0,1,252.67,30.62Z" style="fill:#2f3640"/><path d="M40.09,7.67h4.25V31.13H40.09Z" style="fill:#2f3640"/><path d="M51.37,29.85A11.35,11.35,0,0,1,47,25.58a12.24,12.24,0,0,1-1.57-6.18A12.24,12.24,0,0,1,47,13.22,11.16,11.16,0,0,1,51.37,9a12.84,12.84,0,0,1,6.29-1.52A12.7,12.7,0,0,1,63.92,9a11.09,11.09,0,0,1,4.34,4.25,12.14,12.14,0,0,1,1.58,6.18,12.14,12.14,0,0,1-1.58,6.18,11.27,11.27,0,0,1-4.34,4.27,12.61,12.61,0,0,1-6.26,1.55A12.75,12.75,0,0,1,51.37,29.85Zm10.34-3.21a7.38,7.38,0,0,0,2.81-2.92,9,9,0,0,0,1-4.32,9,9,0,0,0-1-4.32,7.2,7.2,0,0,0-2.81-2.9,8.57,8.57,0,0,0-8.11,0,7.38,7.38,0,0,0-2.83,2.9,8.85,8.85,0,0,0-1,4.32,8.85,8.85,0,0,0,1,4.32,7.57,7.57,0,0,0,2.83,2.92,8.43,8.43,0,0,0,8.11,0Z" style="fill:#2f3640"/><path d="M36,9.84c-1.73-1.6-4.21-2.39-7.46-2.39a18,18,0,0,0-5.36.77c-.39.12-.76.25-1.12.39a11.33,11.33,0,0,1,2.23,2.81l.14.24a12.35,12.35,0,0,1,3.62-.54,6.77,6.77,0,0,1,4.7,1.46,5.44,5.44,0,0,1,1.59,4.21v.84H27.63q-4.92,0-7.18,1.88a6.18,6.18,0,0,0-2.26,5c0,.18,0,.35,0,.52A7.08,7.08,0,0,1,16,26.84a7.83,7.83,0,0,1-3.63.84,8.36,8.36,0,0,1-4.14-1,7.18,7.18,0,0,1-2.88-2.9,8.79,8.79,0,0,1-1-4.36,8.74,8.74,0,0,1,1-4.32,7.24,7.24,0,0,1,2.88-2.9,8.36,8.36,0,0,1,4.14-1A7.71,7.71,0,0,1,16,12a7.26,7.26,0,0,1,2.75,2.52L22,12.45a9.22,9.22,0,0,0-3.88-3.72A12.23,12.23,0,0,0,12.4,7.45,13.19,13.19,0,0,0,6,9a11.33,11.33,0,0,0-4.41,4.25A12.05,12.05,0,0,0,0,19.4a12.05,12.05,0,0,0,1.59,6.18A11.53,11.53,0,0,0,6,29.85a13.09,13.09,0,0,0,6.4,1.55,12.12,12.12,0,0,0,5.69-1.31,9.85,9.85,0,0,0,1.81-1.21,6.44,6.44,0,0,0,.66.61,9.8,9.8,0,0,0,6.32,1.91,11.52,11.52,0,0,0,4.67-.87,6.71,6.71,0,0,0,3-2.5v3.1h4V17C38.61,13.81,37.75,11.43,36,9.84ZM34.36,24A6.24,6.24,0,0,1,31.79,27a7.92,7.92,0,0,1-4.21,1.08,6.29,6.29,0,0,1-3.81-1,3.3,3.3,0,0,1-1.37-2.79q0-3.63,5.41-3.63h6.55Z" style="fill:#2f3640"/><path d="M40.09.85h4.25V5.21H40.09Z" style="fill:#2f3640"/><path d="M220.91,9.81q-2.59-2.4-7.47-2.4l-6.25,0v4.06c1.73,0,4.76,0,5.76,0,2.07,0,3.64.15,4.7,1.13a5.4,5.4,0,0,1,1.6,4.21v.84h-6.74c-3.28,0-5.68.63-7.18,1.89a6.14,6.14,0,0,0-2.26,5,6.12,6.12,0,0,0,2.37,5,9.8,9.8,0,0,0,6.32,1.91,11.48,11.48,0,0,0,4.67-.87,6.69,6.69,0,0,0,3-2.5v3.1h4V17Q223.5,12.2,220.91,9.81ZM219.25,24A6.19,6.19,0,0,1,216.68,27a7.88,7.88,0,0,1-4.21,1.09,6.3,6.3,0,0,1-3.82-1,3.3,3.3,0,0,1-1.37-2.79q0-3.64,5.41-3.64h6.56Z" style="fill:#2f3640"/><path d="M189,9.81q-2.6-2.4-7.47-2.4l-6.25,0v4.06c1.73,0,4.76,0,5.76,0,2.07,0,3.64.15,4.7,1.13a5.4,5.4,0,0,1,1.6,4.21v.84h-6.74q-4.92,0-7.18,1.89a6.14,6.14,0,0,0-2.26,5,6.12,6.12,0,0,0,2.37,5,9.8,9.8,0,0,0,6.32,1.91,11.48,11.48,0,0,0,4.67-.87,6.69,6.69,0,0,0,3-2.5v3.1h4V17Q191.58,12.2,189,9.81ZM187.33,24A6.19,6.19,0,0,1,184.76,27a7.88,7.88,0,0,1-4.21,1.09,6.3,6.3,0,0,1-3.82-1,3.3,3.3,0,0,1-1.37-2.79q0-3.64,5.41-3.64h6.56Z" style="fill:#2f3640"/><path d="M210,3.21a1.88,1.88,0,0,1,1.51-.69,1.8,1.8,0,0,1,.92.27,7.15,7.15,0,0,1,1.09.86,17.18,17.18,0,0,0,1.83,1.26,3.45,3.45,0,0,0,1.74.42A3.57,3.57,0,0,0,220,4,6,6,0,0,0,221.2.34h-2.27a2.87,2.87,0,0,1-.63,1.84,1.92,1.92,0,0,1-1.51.68,1.53,1.53,0,0,1-.88-.28,14.09,14.09,0,0,1-1.14-.86A12.09,12.09,0,0,0,213,.44a3.8,3.8,0,0,0-4.71,1,6.12,6.12,0,0,0-1.19,3.73h2.27A2.94,2.94,0,0,1,210,3.21Z" style="fill:#2f3640"/><path d="M204.66,7.44a11.25,11.25,0,0,0-4,1,7.25,7.25,0,0,0-3.28,3.1V7.64h-4.08V31.13h4.26V19.43a8.17,8.17,0,0,1,2-5.88,7,7,0,0,1,5.16-2.05Z" style="fill:#2f3640"/></g></g></svg>