<svg xmlns="http://www.w3.org/2000/svg" viewBox="0 0 756.31 223.74"><g id="Layer_2" data-name="Layer 2"><g id="Layer_1-2" data-name="Layer 1"><path d="M756.31,212a11.77,11.77,0,0,1-11.73,11.77H11.72a11.77,11.77,0,0,1,0-23.53,12,12,0,0,1,2.81.34,23.16,23.16,0,0,1,39.74-16.2l.21-.09c-.13-1.42-.21-2.84-.21-4.31a43.8,43.8,0,0,1,63-39.31,31.24,31.24,0,0,1,60.3-9.48,43.62,43.62,0,0,1,37-20.43,45.22,45.22,0,0,1,8.36.77,57.19,57.19,0,0,1-.9-10.21,59.19,59.19,0,0,1,97.88-44.83,7,7,0,0,1,.74-1.2,57.52,57.52,0,0,1,115,0,6.41,6.41,0,0,1,.73,1.2,59.2,59.2,0,0,1,97.89,44.83,57.19,57.19,0,0,1-.91,10.21,45.38,45.38,0,0,1,8.36-.77,43.65,43.65,0,0,1,37,20.43,31.24,31.24,0,0,1,60.3,9.48A43.8,43.8,0,0,1,702,180c0,1.47-.09,2.89-.22,4.31l.22.09a23.16,23.16,0,0,1,39.74,16.2A11.73,11.73,0,0,1,756.31,212Z" style="fill:#fff"/></g></g></svg>