<svg width="22" height="15" viewBox="0 0 22 15" fill="none" xmlns="http://www.w3.org/2000/svg">
<path d="M21.252 0.278667C21.0469 0.113914 20.7959 0.0165828 20.5333 0L1.672 0C1.22856 0 0.803278 0.176157 0.489717 0.489718C0.176157 0.803278 0 1.22856 0 1.672L0 13.2C0.00386765 13.6409 0.18173 14.0624 0.494873 14.3728C0.808015 14.6832 1.23109 14.8574 1.672 14.8573H20.328C20.7689 14.8574 21.192 14.6832 21.5051 14.3728C21.8183 14.0624 21.9961 13.6409 22 13.2V1.672C22.0026 1.39558 21.9355 1.12296 21.8047 0.879397C21.674 0.635837 21.4838 0.429214 21.252 0.278667ZM2.2 3.93067L9.988 10.0907C10.2302 10.2819 10.5301 10.3853 10.8387 10.384C11.1593 10.3914 11.4736 10.2936 11.7333 10.1053L19.8733 3.79867V12.7307H2.2V3.93067ZM18.3333 1.96533L10.824 7.744L3.608 2.03867L18.3333 1.96533Z" fill="white"/>
</svg>
