<svg width="20" height="20" viewBox="0 0 20 20" fill="none" xmlns="http://www.w3.org/2000/svg">
<path fill-rule="evenodd" clip-rule="evenodd" d="M9.99994 2.62858e-06C7.62395 -0.0017193 5.32498 0.842612 3.51489 2.38173C1.7048 3.92085 0.501864 6.05419 0.1216 8.39956C-0.258664 10.7449 0.208588 13.1491 1.43965 15.1812C2.67071 17.2134 4.58513 18.7409 6.83994 19.49C7.33994 19.58 7.51994 19.27 7.51994 19.01C7.51994 18.75 7.51994 18.14 7.51994 17.31C4.72994 17.91 4.13994 16 4.13994 16C3.95319 15.3789 3.54834 14.8462 2.99994 14.5C2.08994 13.88 3.06994 13.89 3.06994 13.89C3.3832 13.9327 3.68302 14.0446 3.94766 14.2175C4.2123 14.3905 4.43512 14.6202 4.59994 14.89C4.87582 15.3859 5.33736 15.7519 5.88308 15.9076C6.42879 16.0632 7.01397 15.9958 7.50994 15.72C7.55551 15.2131 7.77862 14.7385 8.13994 14.38C5.99994 14.17 3.61994 13.31 3.61994 9.48C3.59825 8.48866 3.95595 7.52644 4.61994 6.79C4.31446 5.92959 4.35025 4.98484 4.71994 4.15C4.71994 4.15 5.55994 3.88 7.46994 5.15C9.10754 4.70978 10.8323 4.70978 12.4699 5.15C14.3799 3.86 15.2199 4.15 15.2199 4.15C15.5896 4.98484 15.6254 5.92959 15.3199 6.79C15.9839 7.52644 16.3416 8.48866 16.3199 9.48C16.3199 13.32 13.9799 14.16 11.7499 14.41C11.9883 14.6523 12.1723 14.9426 12.2895 15.2616C12.4068 15.5807 12.4547 15.921 12.4299 16.26C12.4299 17.6 12.4299 18.68 12.4299 19.01C12.4299 19.34 12.6099 19.59 13.1199 19.49C15.3715 18.742 17.2838 17.2179 18.5152 15.1898C19.7465 13.1618 20.2167 10.762 19.8416 8.41925C19.4666 6.0765 18.2708 3.94341 16.4679 2.4011C14.665 0.858789 12.3725 0.00773741 9.99994 2.62858e-06Z" fill="#2F3640"/>
</svg>
