<svg width="23" height="23" viewBox="0 0 23 23" fill="none" xmlns="http://www.w3.org/2000/svg">
<path fill-rule="evenodd" clip-rule="evenodd" d="M11.6993 20.6387C9.84951 20.6449 8.03795 20.112 6.486 19.1054L2.83667 20.2554L4.01733 16.7594C2.84651 15.1566 2.21314 13.2243 2.208 11.2394C2.208 10.9327 2.208 10.6261 2.208 10.3194C2.46162 7.97266 3.5792 5.8042 5.34328 4.23592C7.10736 2.66764 9.39178 1.81171 11.7521 1.83466C14.1124 1.85762 16.3797 2.75781 18.1129 4.3601C19.8462 5.96238 20.9214 8.15217 21.1293 10.5034C21.1293 10.7487 21.1293 10.9941 21.1293 11.2394C21.1172 13.7499 20.1092 16.153 18.3268 17.9211C16.5444 19.6891 14.1332 20.6775 11.6227 20.6694L11.6993 20.6387ZM16.8667 13.4627C16.5907 13.3247 15.2413 12.6654 14.9807 12.5887C14.72 12.5121 14.536 12.4354 14.352 12.7114C14.168 12.9874 13.6313 13.6007 13.4627 13.8001C13.294 13.9994 13.156 13.9994 12.8647 13.8001C12.0877 13.4851 11.3677 13.0448 10.7333 12.4967C10.1345 11.939 9.61824 11.2988 9.2 10.5954C9.04667 10.3194 9.2 10.1814 9.32267 10.0434L9.73667 9.55272L9.844 9.41472C9.90654 9.31082 9.96286 9.2033 10.0127 9.09272C10.0503 9.01916 10.07 8.9377 10.07 8.85506C10.07 8.77241 10.0503 8.69095 10.0127 8.61739C10.0127 8.47939 9.384 7.08406 9.154 6.57806C8.924 6.07206 8.602 6.13339 8.43333 6.13339H7.89667C7.75769 6.1377 7.62099 6.16977 7.49459 6.2277C7.36819 6.28563 7.25466 6.36826 7.16067 6.47072C6.85219 6.76461 6.60834 7.11955 6.44466 7.51291C6.28098 7.90627 6.20106 8.32942 6.21 8.75539C6.21207 9.07104 6.25327 9.38521 6.33267 9.69072C6.55322 10.3817 6.8903 11.03 7.32933 11.6074C8.49124 13.4026 10.1325 14.8367 12.0673 15.7474C14.8733 16.8514 14.8733 16.4834 15.3793 16.4374C15.765 16.3632 16.1308 16.2088 16.453 15.9843C16.7752 15.7598 17.0468 15.4701 17.25 15.1341C17.4326 14.7147 17.4912 14.2517 17.4187 13.8001C17.4187 13.6774 17.158 13.6007 16.882 13.4627H16.8667ZM23 10.9174C22.8746 8.02361 21.6428 5.28845 19.559 3.27663C17.4752 1.26482 14.6985 0.129945 11.8021 0.106333C8.90565 0.082721 6.11076 1.17217 3.99442 3.14975C1.87808 5.12733 0.601891 7.84204 0.429333 10.7334C0.429333 10.9021 0.429333 11.0707 0.429333 11.2241C0.429 13.2638 0.991411 15.264 2.05467 17.0047L0 23.0001L6.256 21.0067C7.96894 21.9483 9.89683 22.4296 11.8513 22.4033C13.8059 22.3771 15.7201 21.8444 17.4072 20.8572C19.0943 19.87 20.4965 18.462 21.4767 16.7709C22.457 15.0798 22.9818 13.1633 23 11.2087V10.9174Z" fill="white"/>
</svg>
